<svg id="steering-wheel" xmlns="http://www.w3.org/2000/svg" width="122.88" height="122.88" viewBox="0 0 122.88 122.88">
  <path id="Path_190" data-name="Path 190" d="M61.44,0A61.44,61.44,0,1,1,0,61.44,61.443,61.443,0,0,1,61.44,0Zm-.27,61.6a3.18,3.18,0,1,1-3.18,3.18,3.175,3.175,0,0,1,3.18-3.18Zm.03-8.32A11.47,11.47,0,1,1,49.73,64.75,11.47,11.47,0,0,1,61.2,53.28ZM14.78,44.57c4.45-12.31,13.52-22.7,24.9-28.01,15.63-7.29,34.61-7.75,50.69,4.15,9.48,7.01,12.94,12.76,17.67,22.95,3.58,9.03.64,11.97-10.87,6.9-23.79-11.77-47.84-11.24-72.12,0-8.96,5.85-13.99.97-10.27-5.99ZM75.9,109.05c16.62-5.23,26.32-15.81,32.27-29.3,3.87-10.43-8.26-13.97-12.52-7.1A39.962,39.962,0,0,1,86.1,85.42c-6.2,5.27-15.18,6.23-16.58,16.16-.73,5.16.45,9.8,6.38,7.47Zm-28.64,0c-16.62-5.23-26.32-15.81-32.27-29.3-3.87-10.43,8.26-13.97,12.52-7.1a39.962,39.962,0,0,0,9.55,12.77c6.2,5.27,15.18,6.23,16.58,16.16.73,5.16-.45,9.8-6.38,7.47Z" fill-rule="evenodd"/>
</svg>
